<?xml version="1.0" standalone="no"?>
<!DOCTYPE svg PUBLIC "-//W3C//DTD SVG 20010904//EN"
 "http://www.w3.org/TR/2001/REC-SVG-20010904/DTD/svg10.dtd">
<svg version="1.0" xmlns="http://www.w3.org/2000/svg"
 width="512.000000pt" height="512.000000pt" viewBox="0 0 512.000000 512.000000"
 preserveAspectRatio="xMidYMid meet">
<metadata>
Created by potrace 1.14, written by Peter Selinger 2001-2017
</metadata>
<g transform="translate(0.000000,512.000000) scale(0.100000,-0.100000)"
fill="#000000" stroke="none">
<path d="M2369 5045 c-2 -2 -35 -6 -74 -9 -157 -15 -392 -67 -560 -126 -524
-182 -986 -549 -1284 -1023 -101 -159 -225 -424 -256 -547 -1 -3 -5 -12 -8
-20 -26 -61 -86 -344 -104 -495 -15 -118 -8 -501 11 -595 1 -8 6 -37 10 -65
46 -295 174 -634 344 -909 235 -380 612 -724 1008 -920 220 -108 475 -194 676
-226 35 -5 81 -12 103 -16 108 -17 206 -22 380 -19 105 2 199 5 210 8 11 2 47
8 80 12 32 4 68 9 80 11 148 29 143 28 220 48 177 46 430 149 573 233 41 24
76 43 78 43 11 0 207 139 279 198 91 74 255 236 336 332 308 364 520 866 566
1337 10 103 10 422 0 498 -4 33 -10 78 -13 100 -11 92 -27 167 -59 290 -85
321 -220 596 -427 872 -82 111 -328 362 -433 445 -96 75 -260 188 -274 188 -6
0 -11 3 -11 8 0 4 -10 12 -23 18 -12 6 -71 36 -132 67 -118 59 -228 105 -340
142 -79 26 -302 82 -355 89 -91 13 -127 18 -150 23 -29 6 -446 14 -451 8z"/>
</g>
</svg>
